<svg version="1.1" xmlns="http://www.w3.org/2000/svg" viewBox="0 0 590.6422018348624 562.5186654544453" width="1181.2844036697247" height="1125.0373309088907">
  <!-- svg-source:excalidraw -->
  
  <defs>
    <style class="style-fonts">
      @font-face {
        font-family: "Virgil";
        src: url("https://excalidraw.com/Virgil.woff2");
      }
      @font-face {
        font-family: "Cascadia";
        src: url("https://excalidraw.com/Cascadia.woff2");
      }
      @font-face {
        font-family: "Assistant";
        src: url("https://excalidraw.com/Assistant-Regular.woff2");
      }
    </style>
    
  </defs>
  <rect x="0" y="0" width="590.6422018348624" height="562.5186654544453" fill="#ffffff"></rect><g stroke-opacity="0.9" fill-opacity="0.9" stroke-linecap="round" transform="translate(140.19395542331335 10) rotate(0 132.55606523955134 33.43527013251787)"><path d="M16.72 0 C98.43 -0.6, 184.2 -2.02, 248.39 0 M16.72 0 C85.73 -1.02, 152.6 -1.67, 248.39 0 M248.39 0 C260.03 1.77, 263.85 6.17, 265.11 16.72 M248.39 0 C260.3 1.43, 265.51 7.55, 265.11 16.72 M265.11 16.72 C265.25 26.75, 266.46 36.43, 265.11 50.15 M265.11 16.72 C264.8 29.51, 265.29 42.44, 265.11 50.15 M265.11 50.15 C264.31 61.2, 260.01 68.55, 248.39 66.87 M265.11 50.15 C266.61 62.21, 258.59 67.71, 248.39 66.87 M248.39 66.87 C180.81 64.92, 115.9 63.65, 16.72 66.87 M248.39 66.87 C164.06 65.13, 80.94 64.73, 16.72 66.87 M16.72 66.87 C6.68 68.25, -0.79 62.52, 0 50.15 M16.72 66.87 C7.45 68.42, 1.36 63.28, 0 50.15 M0 50.15 C-0.76 38.46, 1.34 27.26, 0 16.72 M0 50.15 C-1.14 41.93, -0.93 35.33, 0 16.72 M0 16.72 C-0.02 6.68, 6.49 -1.96, 16.72 0 M0 16.72 C1.32 7.02, 4.09 0.4, 16.72 0" stroke="#1e1e1e" stroke-width="2" fill="none"></path></g><g stroke-opacity="0.9" fill-opacity="0.9" transform="translate(231.68335501345064 31.43527013251787) rotate(0 41.06666564941406 12)"><text x="41.06666564941406" y="19.3125" font-family="Cascadia, Segoe UI Emoji" font-size="20px" fill="#1e1e1e" text-anchor="middle" style="white-space: pre;" direction="ltr" dominant-baseline="alphabetic">storage</text></g><g stroke-opacity="0.9" fill-opacity="0.9" stroke-linecap="round" transform="translate(10 171.7847205003169) rotate(0 117.88990825688074 41.74311926605503)"><path d="M20.87 0 C95.14 -1.64, 166.21 -0.58, 214.91 0 M20.87 0 C92.19 -1.18, 165 0.04, 214.91 0 M214.91 0 C227.56 0.59, 236.44 8.2, 235.78 20.87 M214.91 0 C229.22 1.98, 236.11 4.85, 235.78 20.87 M235.78 20.87 C237.52 29.61, 237.6 39.74, 235.78 62.61 M235.78 20.87 C236.12 35.37, 235.33 50.05, 235.78 62.61 M235.78 62.61 C236.25 78.21, 230.13 84.28, 214.91 83.49 M235.78 62.61 C234.83 77.36, 228.56 83.79, 214.91 83.49 M214.91 83.49 C173.43 81.06, 130.42 81.83, 20.87 83.49 M214.91 83.49 C172.12 82.56, 130.79 83.87, 20.87 83.49 M20.87 83.49 C6.17 84.71, 1.63 77.87, 0 62.61 M20.87 83.49 C8.32 85.47, 0.78 77.54, 0 62.61 M0 62.61 C1.61 48.72, -1.29 37.5, 0 20.87 M0 62.61 C-0.31 52.93, 0.36 42.79, 0 20.87 M0 20.87 C0.92 5, 8.1 1.26, 20.87 0 M0 20.87 C-1.49 7.36, 8.67 0.67, 20.87 0" stroke="#1e1e1e" stroke-width="2" fill="none"></path></g><g stroke-opacity="0.9" fill-opacity="0.9" transform="translate(86.82324260746668 201.52783976637193) rotate(0 41.06666564941406 12)"><text x="41.06666564941406" y="19.3125" font-family="Cascadia, Segoe UI Emoji" font-size="20px" fill="#1e1e1e" text-anchor="middle" style="white-space: pre;" direction="ltr" dominant-baseline="alphabetic">indexer</text></g><g stroke-linecap="round"><g stroke-opacity="0.9" fill-opacity="0.9" transform="translate(173.3027522935779 165.36270215169304) rotate(0 0.4587155963301939 -41.28440366972478)"><path d="M-0.39 -0.07 C-0.3 -13.84, 0.75 -68.06, 1.16 -81.72 M1.6 -1.15 C1.51 -15.33, 0.3 -69.57, 0.35 -83.4" stroke="#1e1e1e" stroke-width="2" fill="none"></path></g><g stroke-opacity="0.9" fill-opacity="0.9" transform="translate(173.3027522935779 165.36270215169304) rotate(0 0.4587155963301939 -41.28440366972478)"><path d="M9.15 -60 C5.77 -67.83, 4.2 -74.54, 0.35 -83.4 M9.15 -60 C6.52 -67.18, 2.62 -75.81, 0.35 -83.4" stroke="#1e1e1e" stroke-width="2" fill="none"></path></g><g stroke-opacity="0.9" fill-opacity="0.9" transform="translate(173.3027522935779 165.36270215169304) rotate(0 0.4587155963301939 -41.28440366972478)"><path d="M-7.95 -59.81 C-5.33 -67.65, -0.89 -74.43, 0.35 -83.4 M-7.95 -59.81 C-4.71 -67, -2.73 -75.69, 0.35 -83.4" stroke="#1e1e1e" stroke-width="2" fill="none"></path></g></g><mask></mask><g stroke-opacity="0.9" fill-opacity="0.9" stroke-linecap="round" transform="translate(340.275229357798 159.8581149957297) rotate(0 120.18348623853217 43.577981651376206)"><path d="M21.79 0 C75.82 1.51, 127.89 -1.65, 218.58 0 M21.79 0 C73.64 -1.44, 127.08 -1.12, 218.58 0 M218.58 0 C233.45 1.72, 240.65 5.43, 240.37 21.79 M218.58 0 C231.74 0.51, 239.81 9.16, 240.37 21.79 M240.37 21.79 C241.75 31.79, 240.49 42.99, 240.37 65.37 M240.37 21.79 C240.43 35.18, 240.85 47.29, 240.37 65.37 M240.37 65.37 C239.54 80.62, 232.87 87.42, 218.58 87.16 M240.37 65.37 C238.55 78.86, 232.56 88.73, 218.58 87.16 M218.58 87.16 C177.29 84.11, 138.97 85.08, 21.79 87.16 M218.58 87.16 C171.46 89.12, 125.96 89.18, 21.79 87.16 M21.79 87.16 C8.45 88.88, 0.68 80.77, 0 65.37 M21.79 87.16 C7.7 86.46, -0.61 81.6, 0 65.37 M0 65.37 C-0.81 51.77, -0.8 40.37, 0 21.79 M0 65.37 C0.47 49.1, 0.58 35.43, 0 21.79 M0 21.79 C-1.29 7.61, 8.75 0.59, 21.79 0 M0 21.79 C0.75 7.87, 5.01 -0.53, 21.79 0" stroke="#1e1e1e" stroke-width="2" fill="none"></path></g><g stroke-opacity="0.9" fill-opacity="0.9" transform="translate(419.39204994691613 191.43609664710596) rotate(0 41.06666564941406 12)"><text x="41.06666564941406" y="19.3125" font-family="Cascadia, Segoe UI Emoji" font-size="20px" fill="#1e1e1e" text-anchor="middle" style="white-space: pre;" direction="ltr" dominant-baseline="alphabetic">backend</text></g><g stroke-linecap="round"><g stroke-opacity="0.9" fill-opacity="0.9" transform="translate(373.3027522935779 87.38105077554621) rotate(0 -0.4587155963301939 32.110091743119256)"><path d="M1.15 0.52 C0.83 11.02, -1.37 53.03, -1.67 63.82 M0.29 -0.25 C0.34 10.34, 0.91 54.52, 0.65 65.15" stroke="#1e1e1e" stroke-width="2" fill="none"></path></g><g stroke-opacity="0.9" fill-opacity="0.9" transform="translate(373.3027522935779 87.38105077554621) rotate(0 -0.4587155963301939 32.110091743119256)"><path d="M-7.84 41.63 C-4.08 47.84, -2.89 57.11, 0.65 65.15 M-7.84 41.63 C-4.36 51.36, -1.22 60.74, 0.65 65.15" stroke="#1e1e1e" stroke-width="2" fill="none"></path></g><g stroke-opacity="0.9" fill-opacity="0.9" transform="translate(373.3027522935779 87.38105077554621) rotate(0 -0.4587155963301939 32.110091743119256)"><path d="M9.26 41.68 C7.54 48.04, 3.24 57.29, 0.65 65.15 M9.26 41.68 C6.1 51.44, 2.6 60.8, 0.65 65.15" stroke="#1e1e1e" stroke-width="2" fill="none"></path></g></g><mask></mask><g stroke-opacity="0.9" fill-opacity="0.9" stroke-linecap="round" transform="translate(352.2018348623849 332.3351792159132) rotate(0 106.42201834862385 36.697247706422104)"><path d="M18.35 0 C87.36 1.59, 159.46 -0.16, 194.5 0 M18.35 0 C76.6 -0.23, 134.66 -2.01, 194.5 0 M194.5 0 C205.54 0.44, 212.36 7.77, 212.84 18.35 M194.5 0 C205.22 1.99, 211.43 7.27, 212.84 18.35 M212.84 18.35 C212.56 28.16, 212.7 40.06, 212.84 55.05 M212.84 18.35 C212.67 32.8, 212.97 46.65, 212.84 55.05 M212.84 55.05 C211.26 66.38, 206.26 74.76, 194.5 73.39 M212.84 55.05 C210.58 68.67, 205.35 71.51, 194.5 73.39 M194.5 73.39 C156.89 73.71, 123.17 71.81, 18.35 73.39 M194.5 73.39 C131.44 75.44, 67.54 75.02, 18.35 73.39 M18.35 73.39 C6.5 72.79, -0.53 68.76, 0 55.05 M18.35 73.39 C5.45 71.77, 1.75 65.99, 0 55.05 M0 55.05 C1.22 47.27, 1.31 40.46, 0 18.35 M0 55.05 C-0.86 47.8, 0.53 40.5, 0 18.35 M0 18.35 C0.65 6.64, 4.16 -0.46, 18.35 0 M0 18.35 C-0.38 5.42, 5.1 -0.23, 18.35 0" stroke="#1e1e1e" stroke-width="2" fill="none"></path></g><g stroke-opacity="0.9" fill-opacity="0.9" transform="translate(423.4238524480693 357.0324269223353) rotate(0 35.20000076293945 12)"><text x="35.20000076293945" y="19.3125" font-family="Cascadia, Segoe UI Emoji" font-size="20px" fill="#1e1e1e" text-anchor="middle" style="white-space: pre;" direction="ltr" dominant-baseline="alphabetic">router</text></g><g stroke-linecap="round"><g stroke-opacity="0.9" fill-opacity="0.9" transform="translate(459.5412844036696 252.51866545444534) rotate(0 0.9174311926605014 34.862385321100874)"><path d="M0.29 1.06 C0.6 12.81, 0.76 58.51, 1.08 70.08 M-1.01 0.57 C-0.26 11.98, 2.95 56.82, 3.39 68.15" stroke="#1e1e1e" stroke-width="2" fill="none"></path></g><g stroke-opacity="0.9" fill-opacity="0.9" transform="translate(459.5412844036696 252.51866545444534) rotate(0 0.9174311926605014 34.862385321100874)"><path d="M-6.5 45.19 C-2.45 49.36, -1.28 56.74, 3.39 68.15 M-6.5 45.19 C-2.73 52.5, 0.11 61.95, 3.39 68.15" stroke="#1e1e1e" stroke-width="2" fill="none"></path></g><g stroke-opacity="0.9" fill-opacity="0.9" transform="translate(459.5412844036696 252.51866545444534) rotate(0 0.9174311926605014 34.862385321100874)"><path d="M10.58 44.2 C10.56 48.65, 7.68 56.26, 3.39 68.15 M10.58 44.2 C8.16 52.02, 4.82 61.83, 3.39 68.15" stroke="#1e1e1e" stroke-width="2" fill="none"></path></g></g><mask></mask><g stroke-opacity="0.9" fill-opacity="0.9" stroke-linecap="round" transform="translate(353.1192660550457 476.37187646361974) rotate(0 107.33944954128435 38.0733944954128)"><path d="M19.04 0 C76.92 1.77, 134.85 1.46, 195.64 0 M19.04 0 C86.6 1.84, 155.11 2.44, 195.64 0 M195.64 0 C207.02 1.73, 213.45 7.35, 214.68 19.04 M195.64 0 C208.09 -0.29, 215.56 6.07, 214.68 19.04 M214.68 19.04 C216.34 30.24, 215.45 38, 214.68 57.11 M214.68 19.04 C213.84 31.39, 214.4 45.33, 214.68 57.11 M214.68 57.11 C212.71 71.01, 207.14 74.51, 195.64 76.15 M214.68 57.11 C212.53 69.44, 207.3 74.71, 195.64 76.15 M195.64 76.15 C134.14 77.08, 71.53 76.63, 19.04 76.15 M195.64 76.15 C127.61 76.62, 58.93 77.67, 19.04 76.15 M19.04 76.15 C5.77 74.73, 1.52 68.68, 0 57.11 M19.04 76.15 C4.31 74.87, -1.56 70.97, 0 57.11 M0 57.11 C-2.17 46.88, 1.05 33.07, 0 19.04 M0 57.11 C0.04 45.29, -1.26 32.71, 0 19.04 M0 19.04 C-0.33 5.74, 5.46 -0.2, 19.04 0 M0 19.04 C-1.17 6.33, 4.41 -2, 19.04 0" stroke="#1e1e1e" stroke-width="2" fill="none"></path></g><g stroke-opacity="0.9" fill-opacity="0.9" transform="translate(413.52538124574426 502.44527095903265) rotate(0 46.93333435058594 12)"><text x="46.93333435058594" y="19.3125" font-family="Cascadia, Segoe UI Emoji" font-size="20px" fill="#1e1e1e" text-anchor="middle" style="white-space: pre;" direction="ltr" dominant-baseline="alphabetic">frontend</text></g><g stroke-linecap="round"><g stroke-opacity="0.9" fill-opacity="0.9" transform="translate(460.4587155963302 409.3993993993994) rotate(0 -0.45871559633030756 30.733944954128447)"><path d="M0.4 0.75 C0.4 11.1, -0.52 52.56, -0.71 62.5 M-0.86 0.09 C-0.92 10.1, -1.46 50.75, -1.55 60.92" stroke="#1e1e1e" stroke-width="2" fill="none"></path></g><g stroke-opacity="0.9" fill-opacity="0.9" transform="translate(460.4587155963302 409.3993993993994) rotate(0 -0.45871559633030756 30.733944954128447)"><path d="M-9.83 37.33 C-6.56 43.24, -4.12 48.77, -1.55 60.92 M-9.83 37.33 C-8.49 43.06, -7.17 48.01, -1.55 60.92" stroke="#1e1e1e" stroke-width="2" fill="none"></path></g><g stroke-opacity="0.9" fill-opacity="0.9" transform="translate(460.4587155963302 409.3993993993994) rotate(0 -0.45871559633030756 30.733944954128447)"><path d="M7.27 37.52 C6.49 43.44, 4.87 48.93, -1.55 60.92 M7.27 37.52 C5.05 43.25, 2.79 48.17, -1.55 60.92" stroke="#1e1e1e" stroke-width="2" fill="none"></path></g></g><mask></mask></svg>