<?xml version="1.0" encoding="UTF-8" standalone="no"?>
<!DOCTYPE svg PUBLIC "-//W3C//DTD SVG 1.1//EN"
 "http://www.w3.org/Graphics/SVG/1.1/DTD/svg11.dtd">
<!-- Generated by graphviz version 11.0.0 (20240428.1522)
 -->
<!-- Pages: 1 -->
<svg width="582pt" height="474pt"
 viewBox="0.00 0.00 581.90 473.57" xmlns="http://www.w3.org/2000/svg" xmlns:xlink="http://www.w3.org/1999/xlink">
<g id="graph0" class="graph" transform="scale(1 1) rotate(0) translate(4 469.57)">
<polygon fill="white" stroke="none" points="-4,4 -4,-469.57 577.9,-469.57 577.9,4 -4,4"/>
<!-- node663631fb7e7004982b81deca -->
<g id="node1" class="node">
<title>node663631fb7e7004982b81deca</title>
<g id="a_node1"><a xlink:title="backend/shatterbird&#45;server/src/settings.rs:8:7&#45;10">
<ellipse fill="yellow" stroke="black" cx="195.85" cy="-33.69" rx="34.46" ry="18"/>
<text text-anchor="middle" x="195.85" y="-28.64" font-family="Times,serif" font-size="14.00">Range</text>
</a>
</g>
<text text-anchor="middle" x="132.51" y="-54.89" font-family="Times,serif" font-size="14.00">«get»@L8</text>
</g>
<!-- node663631fb7e7004982b81decf -->
<g id="node2" class="node">
<title>node663631fb7e7004982b81decf</title>
<ellipse fill="none" stroke="black" cx="307.94" cy="-242.09" rx="46.23" ry="18"/>
<text text-anchor="middle" x="307.94" y="-237.04" font-family="Times,serif" font-size="14.00">ResultSet</text>
</g>
<!-- node663631fb7e7004982b81deca&#45;&gt;node663631fb7e7004982b81decf -->
<g id="edge8" class="edge">
<title>node663631fb7e7004982b81deca&#45;&gt;node663631fb7e7004982b81decf</title>
<path fill="none" stroke="black" d="M205.41,-51.46C224.92,-87.74 269.48,-170.59 292.91,-214.15"/>
<polygon fill="black" stroke="black" points="289.71,-215.59 297.53,-222.74 295.88,-212.27 289.71,-215.59"/>
<text text-anchor="middle" x="238.83" y="-141.2" font-family="Times,serif" font-size="14.00">Next</text>
</g>
<!-- node663631fb7e7004982b81deed -->
<g id="node3" class="node">
<title>node663631fb7e7004982b81deed</title>
<ellipse fill="none" stroke="black" cx="414.22" cy="-18" rx="72.34" ry="18"/>
<text text-anchor="middle" x="414.22" y="-12.95" font-family="Times,serif" font-size="14.00">DefinitionResult</text>
</g>
<!-- node663631fb7e7004982b81decf&#45;&gt;node663631fb7e7004982b81deed -->
<g id="edge2" class="edge">
<title>node663631fb7e7004982b81decf&#45;&gt;node663631fb7e7004982b81deed</title>
<path fill="none" stroke="black" d="M316.46,-224.13C334.83,-185.38 378.34,-93.65 400.6,-46.73"/>
<polygon fill="black" stroke="black" points="403.74,-48.26 404.87,-37.73 397.42,-45.26 403.74,-48.26"/>
<text text-anchor="middle" x="333.26" y="-133.4" font-family="Times,serif" font-size="14.00">Definition</text>
</g>
<!-- node663631fb7e7004982b81ded7 -->
<g id="node4" class="node">
<title>node663631fb7e7004982b81ded7</title>
<ellipse fill="none" stroke="black" cx="516.4" cy="-378.79" rx="57.49" ry="18"/>
<text text-anchor="middle" x="516.4" y="-373.74" font-family="Times,serif" font-size="14.00">HoverResult</text>
</g>
<!-- node663631fb7e7004982b81decf&#45;&gt;node663631fb7e7004982b81ded7 -->
<g id="edge3" class="edge">
<title>node663631fb7e7004982b81decf&#45;&gt;node663631fb7e7004982b81ded7</title>
<path fill="none" stroke="black" d="M331.85,-257.77C368.66,-281.91 439.38,-328.29 481.79,-356.09"/>
<polygon fill="black" stroke="black" points="479.6,-358.85 489.89,-361.4 483.44,-352.99 479.6,-358.85"/>
<text text-anchor="middle" x="394.64" y="-313.21" font-family="Times,serif" font-size="14.00">Hover</text>
</g>
<!-- node663631fb7e7004982b81defb -->
<g id="node5" class="node">
<title>node663631fb7e7004982b81defb</title>
<ellipse fill="none" stroke="black" cx="71.82" cy="-225.68" rx="71.82" ry="18"/>
<text text-anchor="middle" x="71.82" y="-220.63" font-family="Times,serif" font-size="14.00">ReferenceResult</text>
</g>
<!-- node663631fb7e7004982b81decf&#45;&gt;node663631fb7e7004982b81defb -->
<g id="edge7" class="edge">
<title>node663631fb7e7004982b81decf&#45;&gt;node663631fb7e7004982b81defb</title>
<path fill="none" stroke="black" d="M262.13,-238.91C231.02,-236.74 189.03,-233.83 152.4,-231.28"/>
<polygon fill="black" stroke="black" points="152.96,-227.81 142.74,-230.61 152.47,-234.79 152.96,-227.81"/>
<text text-anchor="middle" x="231.75" y="-237.91" font-family="Times,serif" font-size="14.00">References</text>
</g>
<!-- node663631fb7e7004982b81deed&#45;&gt;node663631fb7e7004982b81deca -->
<g id="edge1" class="edge">
<title>node663631fb7e7004982b81deed&#45;&gt;node663631fb7e7004982b81deca</title>
<path fill="none" stroke="black" d="M344.23,-23.03C310.64,-25.44 271.34,-28.27 241.63,-30.4"/>
<polygon fill="black" stroke="black" points="241.57,-26.9 231.85,-31.1 242.08,-33.88 241.57,-26.9"/>
<text text-anchor="middle" x="274.58" y="-30.32" font-family="Times,serif" font-size="14.00">Item</text>
</g>
<!-- node663631fb7e7004982b81defb&#45;&gt;node663631fb7e7004982b81deca -->
<g id="edge6" class="edge">
<title>node663631fb7e7004982b81defb&#45;&gt;node663631fb7e7004982b81deca</title>
<path fill="none" stroke="black" d="M83.49,-207.62C105.4,-173.7 152.81,-100.32 178.48,-60.58"/>
<polygon fill="black" stroke="black" points="181.35,-62.58 183.84,-52.28 175.48,-58.78 181.35,-62.58"/>
<text text-anchor="middle" x="121.42" y="-132.37" font-family="Times,serif" font-size="14.00">Item</text>
</g>
<!-- node663631fb7e7004982b81df05 -->
<g id="node6" class="node">
<title>node663631fb7e7004982b81df05</title>
<g id="a_node6"><a xlink:title="backend/shatterbird&#45;server/src/main.rs:33:29&#45;32">
<ellipse fill="none" stroke="black" cx="147.28" cy="-431.07" rx="34.46" ry="18"/>
<text text-anchor="middle" x="147.28" y="-426.02" font-family="Times,serif" font-size="14.00">Range</text>
</a>
</g>
<text text-anchor="middle" x="80.56" y="-452.27" font-family="Times,serif" font-size="14.00">«get»@L33</text>
</g>
<!-- node663631fb7e7004982b81defb&#45;&gt;node663631fb7e7004982b81df05 -->
<g id="edge5" class="edge">
<title>node663631fb7e7004982b81defb&#45;&gt;node663631fb7e7004982b81df05</title>
<path fill="none" stroke="black" d="M78.52,-243.91C91.7,-279.78 121.08,-359.75 136.83,-402.63"/>
<polygon fill="black" stroke="black" points="133.45,-403.57 140.18,-411.75 140.02,-401.16 133.45,-403.57"/>
<text text-anchor="middle" x="96.79" y="-331.55" font-family="Times,serif" font-size="14.00">Item</text>
</g>
<!-- node663631fb7e7004982b81df05&#45;&gt;node663631fb7e7004982b81decf -->
<g id="edge4" class="edge">
<title>node663631fb7e7004982b81df05&#45;&gt;node663631fb7e7004982b81decf</title>
<path fill="none" stroke="black" d="M161.53,-414.3C189.74,-381.12 252.8,-306.95 286.21,-267.65"/>
<polygon fill="black" stroke="black" points="288.46,-270.41 292.27,-260.52 283.12,-265.87 288.46,-270.41"/>
<text text-anchor="middle" x="214.3" y="-339.99" font-family="Times,serif" font-size="14.00">Next</text>
</g>
</g>
</svg>
